<svg id="visual" viewBox="0 0 1000 400" width="1000" height="400" xmlns="http://www.w3.org/2000/svg" xmlns:xlink="http://www.w3.org/1999/xlink" version="1.1"><rect x="0" y="0" width="1000" height="400" fill="#0092ca"></rect><g transform="translate(33.37614123489191 2.7240268663828004)"><path d="M52.9 -74.6C76.3 -55.7 108.5 -50.7 115.3 -36C122.1 -21.3 103.3 3.1 91.6 26.9C79.9 50.7 75.2 73.9 61.1 91.8C47 109.7 23.5 122.4 -5 129.2C-33.5 136.1 -67 137.2 -97.8 124.7C-128.5 112.2 -156.5 86.1 -171.5 52.7C-186.4 19.4 -188.3 -21.2 -172.2 -51.3C-156 -81.4 -121.8 -101 -90.1 -117.2C-58.4 -133.4 -29.2 -146.2 -7.2 -136.2C14.7 -126.2 29.4 -93.5 52.9 -74.6" fill="#006d98"></path></g></svg>